<svg width="56" height="56" viewBox="0 0 56 56" fill="none" xmlns="http://www.w3.org/2000/svg">
<rect x="2" y="2" width="52" height="52" rx="14" fill="white"/>
<rect x="2" y="2" width="52" height="52" rx="14" stroke="white" stroke-width="4"/>
<path d="M39 17H39.02M18 8H38C43.5228 8 48 12.4772 48 18V38C48 43.5228 43.5228 48 38 48H18C12.4772 48 8 43.5228 8 38V18C8 12.4772 12.4772 8 18 8ZM36 26.74C36.2468 28.4045 35.9625 30.1044 35.1875 31.598C34.4125 33.0916 33.1863 34.3028 31.6833 35.0593C30.1802 35.8159 28.4769 36.0792 26.8156 35.8119C25.1543 35.5445 23.6195 34.7602 22.4297 33.5703C21.2398 32.3805 20.4555 30.8457 20.1881 29.1844C19.9208 27.5231 20.1841 25.8198 20.9407 24.3167C21.6972 22.8137 22.9084 21.5875 24.402 20.8125C25.8956 20.0375 27.5955 19.7532 29.26 20C30.9578 20.2518 32.5297 21.0429 33.7434 22.2566C34.9571 23.4703 35.7482 25.0422 36 26.74Z" stroke="#0D0D0D" stroke-width="4" stroke-linecap="round" stroke-linejoin="round"/>
</svg>
