<svg width="56" height="56" viewBox="0 0 56 56" fill="none" xmlns="http://www.w3.org/2000/svg">
<rect x="2" y="2" width="52" height="52" rx="14" fill="white"/>
<rect x="2" y="2" width="52" height="52" rx="14" stroke="white" stroke-width="4"/>
<path d="M36 20C39.1826 20 42.2348 21.2643 44.4853 23.5147C46.7357 25.7652 48 28.8174 48 32V46H40V32C40 30.9391 39.5786 29.9217 38.8284 29.1716C38.0783 28.4214 37.0609 28 36 28C34.9391 28 33.9217 28.4214 33.1716 29.1716C32.4214 29.9217 32 30.9391 32 32V46H24V32C24 28.8174 25.2643 25.7652 27.5147 23.5147C29.7652 21.2643 32.8174 20 36 20Z" stroke="#0D0D0D" stroke-width="4" stroke-linecap="round" stroke-linejoin="round"/>
<path d="M16 22H8V46H16V22Z" stroke="#0D0D0D" stroke-width="4" stroke-linecap="round" stroke-linejoin="round"/>
<path d="M12 16C14.2091 16 16 14.2091 16 12C16 9.79086 14.2091 8 12 8C9.79086 8 8 9.79086 8 12C8 14.2091 9.79086 16 12 16Z" stroke="#0D0D0D" stroke-width="4" stroke-linecap="round" stroke-linejoin="round"/>
</svg>
