<svg width="48" height="48" viewBox="0 0 48 48" fill="none" xmlns="http://www.w3.org/2000/svg">
<path d="M42.88 22.0998L24.5 40.4798C22.2483 42.7315 19.1943 43.9965 16.01 43.9965C12.8256 43.9965 9.77166 42.7315 7.51997 40.4798C5.26828 38.2282 4.0033 35.1742 4.0033 31.9898C4.0033 28.8055 5.26828 25.7515 7.51997 23.4998L25.9 5.11984C27.4011 3.61871 29.4371 2.77539 31.56 2.77539C33.6829 2.77539 35.7188 3.61871 37.22 5.11984C38.7211 6.62096 39.5644 8.65693 39.5644 10.7798C39.5644 12.9028 38.7211 14.9387 37.22 16.4398L18.82 34.8198C18.0694 35.5704 17.0514 35.9921 15.99 35.9921C14.9285 35.9921 13.9105 35.5704 13.16 34.8198C12.4094 34.0693 11.9877 33.0513 11.9877 31.9898C11.9877 30.9284 12.4094 29.9104 13.16 29.1598L30.14 12.1998" stroke="#1E1E1E" stroke-width="4" stroke-linecap="round" stroke-linejoin="round"/>
</svg>
